<svg width="24" height="24" viewBox="0 0 24 24" fill="none" xmlns="http://www.w3.org/2000/svg">
<path d="M3.75 15.75H7.5C7.69891 15.75 7.88968 15.829 8.03033 15.9697C8.17098 16.1103 8.25 16.3011 8.25 16.5V19.5M20.25 12.75H15C14.8011 12.75 14.6103 12.829 14.4697 12.9697C14.329 13.1103 14.25 13.3011 14.25 13.5V19.5M11.745 3.84299L4.245 6.56999C4.10005 6.6224 3.97476 6.71819 3.88619 6.84434C3.79762 6.97048 3.75007 7.12085 3.75 7.27499V19.5C3.75 19.6989 3.82902 19.8897 3.96967 20.0303C4.11032 20.171 4.30109 20.25 4.5 20.25H19.5C19.6989 20.25 19.8897 20.171 20.0303 20.0303C20.171 19.8897 20.25 19.6989 20.25 19.5V7.27499C20.2499 7.12085 20.2024 6.97048 20.1138 6.84434C20.0252 6.71819 19.9 6.6224 19.755 6.56999L12.255 3.84299C12.0902 3.78342 11.9098 3.78342 11.745 3.84299Z" stroke="white" stroke-width="1.5"/>
</svg>
