<svg width="24" height="24" viewBox="0 0 24 24" fill="none" xmlns="http://www.w3.org/2000/svg">
<path d="M22.2803 14.4697L20.0303 12.2197C19.8896 12.0791 19.6989 12.0002 19.5 12.0002C19.3011 12.0002 19.1104 12.0791 18.9697 12.2197L12 19.1895V22.5H15.3105L22.2803 15.5303C22.4209 15.3896 22.4998 15.1989 22.4998 15C22.4998 14.8011 22.4209 14.6104 22.2803 14.4697ZM14.6895 21H13.5V19.8105L17.25 16.0605L18.4395 17.25L14.6895 21ZM19.5 16.1895L18.3105 15L19.5 13.8105L20.6895 15L19.5 16.1895ZM15 9.75V8.25H13.3935C13.3231 7.98174 13.2158 7.72454 13.0748 7.48575L14.2125 6.348L13.152 5.2875L12.0142 6.42525C11.7755 6.28418 11.5183 6.17691 11.25 6.1065V4.5H9.75V6.1065C9.48174 6.17691 9.22454 6.28418 8.98575 6.42525L7.848 5.2875L6.7875 6.348L7.92525 7.48575C7.78418 7.72454 7.67691 7.98174 7.6065 8.25H6V9.75H7.6065C7.67691 10.0183 7.78418 10.2755 7.92525 10.5142L6.7875 11.652L7.848 12.7125L8.98575 11.5747C9.22454 11.7158 9.48174 11.8231 9.75 11.8935V13.5H11.25V11.8935C11.5183 11.8231 11.7755 11.7158 12.0142 11.5747L13.152 12.7125L14.2125 11.652L13.0748 10.5142C13.2158 10.2755 13.3231 10.0183 13.3935 9.75H15ZM10.5 10.5C10.2033 10.5 9.91332 10.412 9.66664 10.2472C9.41997 10.0824 9.22771 9.84811 9.11418 9.57403C9.00065 9.29994 8.97094 8.99834 9.02882 8.70736C9.0867 8.41639 9.22956 8.14912 9.43934 7.93934C9.64912 7.72956 9.91639 7.5867 10.2074 7.52882C10.4983 7.47094 10.7999 7.50065 11.074 7.61418C11.3481 7.72771 11.5824 7.91997 11.7472 8.16664C11.912 8.41332 12 8.70333 12 9C11.9994 9.39764 11.8412 9.77883 11.56 10.06C11.2788 10.3412 10.8976 10.4994 10.5 10.5Z" fill="white"/>
<path d="M9 22.5H4.5C4.10218 22.5 3.72064 22.342 3.43934 22.0607C3.15804 21.7794 3 21.3978 3 21V3C3 2.60218 3.15804 2.22064 3.43934 1.93934C3.72064 1.65804 4.10218 1.5 4.5 1.5H16.5C16.8978 1.5 17.2794 1.65804 17.5607 1.93934C17.842 2.22064 18 2.60218 18 3V10.5H16.5V3H4.5V21H9V22.5Z" fill="white"/>
</svg>
