<svg width="24" height="24" viewBox="0 0 24 24" fill="none" xmlns="http://www.w3.org/2000/svg">
<path d="M13.1112 3.77778H15.3334C15.6871 3.77778 16.0262 3.91825 16.2762 4.1683C16.5263 4.41835 16.6668 4.75749 16.6668 5.11111M12.9334 18.3467L9.62677 18.8178L10.0979 15.5556L18.5868 7.07556C18.9659 6.72228 19.4674 6.52995 19.9855 6.53909C20.5036 6.54823 20.998 6.75813 21.3644 7.12456C21.7309 7.491 21.9408 7.98536 21.9499 8.5035C21.959 9.02163 21.7667 9.52309 21.4134 9.90222L12.9334 18.3467ZM6.22233 2H12.4446C12.4446 2 13.1112 2 13.1112 2.66667V4.88889C13.1112 4.88889 13.1112 5.55556 12.4446 5.55556H6.22233C6.22233 5.55556 5.55566 5.55556 5.55566 4.88889V2.66667C5.55566 2.66667 5.55566 2 6.22233 2Z" stroke="white" stroke-width="1.5" stroke-linecap="round" stroke-linejoin="round"/>
<path d="M16.6667 18V20.6667C16.6667 21.0203 16.5262 21.3594 16.2761 21.6095C16.0261 21.8595 15.687 22 15.3333 22H3.33333C2.97971 22 2.64057 21.8595 2.39052 21.6095C2.14048 21.3594 2 21.0203 2 20.6667V5.1111C2 4.75748 2.14048 4.41834 2.39052 4.1683C2.64057 3.91825 2.97971 3.77777 3.33333 3.77777H5.55556M6 9.1111H12.2222M6 13.1111H8.22222" stroke="white" stroke-width="1.5" stroke-linecap="round" stroke-linejoin="round"/>
</svg>
