<svg width="22" height="22" viewBox="0 0 22 22" fill="none" xmlns="http://www.w3.org/2000/svg">
<path fill-rule="evenodd" clip-rule="evenodd" d="M15.1439 0.770889L15.2099 0.788889C16.3099 1.08389 17.1809 1.31689 17.8659 1.56489C18.5669 1.81789 19.1389 2.10689 19.6099 2.54789C20.2954 3.19041 20.7749 4.0218 20.9879 4.93689C21.1349 5.56489 21.0999 6.20489 20.9679 6.93789C20.8409 7.65589 20.6079 8.52689 20.3129 9.62589L19.7769 11.6249C19.4829 12.7239 19.2489 13.5949 19.0019 14.2809C18.7479 14.9809 18.4589 15.5529 18.0179 16.0239C17.3963 16.6876 16.5974 17.1589 15.7159 17.3819C15.4576 17.974 15.0813 18.5072 14.6099 18.9489C14.1389 19.3899 13.5669 19.6789 12.8659 19.9329C12.1809 20.1809 11.3099 20.4139 10.2109 20.7089L10.1439 20.7269C9.04389 21.0209 8.17389 21.2539 7.45589 21.3829C6.72289 21.5139 6.08289 21.5489 5.45389 21.4029C4.53892 21.1892 3.70788 20.709 3.06589 20.0229C2.62589 19.5529 2.33589 18.9809 2.08189 18.2799C1.83489 17.5949 1.60189 16.7239 1.30689 15.6239L0.770889 13.6259C0.476889 12.5259 0.242889 11.6559 0.114889 10.9379C-0.0161114 10.2049 -0.0511114 9.56489 0.0948886 8.93589C0.308581 8.02092 0.78883 7.18988 1.47489 6.54789C1.94489 6.10789 2.51689 5.81789 3.21789 5.56389C3.90289 5.31689 4.77389 5.08389 5.87289 4.78889L5.90689 4.77889L6.65789 4.57889C7.04989 3.17989 7.39389 2.19089 8.06589 1.47389C8.70801 0.788197 9.53904 0.308303 10.4539 0.0948886C11.0829 -0.0511114 11.7219 -0.0161114 12.4559 0.114889C13.1729 0.242889 14.0439 0.476889 15.1439 0.770889ZM6.20489 6.25289C5.11189 6.54589 4.32889 6.75789 3.72689 6.97489C3.11689 7.19489 2.75989 7.39889 2.49989 7.64289C2.03054 8.0822 1.70202 8.65084 1.55589 9.27689C1.47589 9.62489 1.47689 10.0369 1.59189 10.6739C1.70689 11.3209 1.92389 12.1309 2.22889 13.2709L2.74689 15.2029C3.05189 16.3429 3.26989 17.1529 3.49289 17.7699C3.71289 18.3799 3.91689 18.7379 4.16089 18.9979C4.6002 19.4672 5.16884 19.7958 5.79489 19.9419C6.14189 20.0219 6.55489 20.0199 7.19189 19.9059C7.83889 19.7909 8.64889 19.5739 9.78889 19.2689C10.9289 18.9629 11.7389 18.7459 12.3569 18.5219C12.9659 18.3019 13.3239 18.0979 13.5839 17.8549C13.7219 17.7249 13.8472 17.5852 13.9599 17.4359C13.7744 17.4094 13.5896 17.3777 13.4059 17.3409C12.7339 17.2069 11.9259 16.9909 10.9309 16.7239L10.8729 16.7089C9.77389 16.4139 8.90289 16.1809 8.21789 15.9329C7.51689 15.6799 6.94489 15.3909 6.47389 14.9499C5.78803 14.3075 5.30812 13.4761 5.09489 12.5609C4.94889 11.9329 4.98389 11.2929 5.11489 10.5599C5.24289 9.84189 5.47689 8.97089 5.77089 7.87189L6.20489 6.25289ZM12.1919 1.59189C11.5539 1.47689 11.1419 1.47489 10.7949 1.55589C10.1688 1.70202 9.6002 2.03054 9.16089 2.49989C8.72489 2.96489 8.45589 3.68489 7.98989 5.39289L7.74689 6.29489L7.22889 8.22689C6.92389 9.36689 6.70689 10.1769 6.59189 10.8239C6.47689 11.4609 6.47489 11.8739 6.55589 12.2209C6.70202 12.8469 7.03054 13.4156 7.49989 13.8549C7.75989 14.0989 8.11789 14.3019 8.72689 14.5229C9.34489 14.7459 10.1549 14.9629 11.2949 15.2689C12.3199 15.5439 13.0799 15.7469 13.6979 15.8689C14.3129 15.9919 14.7309 16.0219 15.0729 15.9799C15.1476 15.9699 15.2196 15.9572 15.2889 15.9419C15.9149 15.7958 16.4836 15.4672 16.9229 14.9979C17.1669 14.7379 17.3709 14.3799 17.5909 13.7709C17.8139 13.1529 18.0309 12.3429 18.3369 11.2029L18.8549 9.27089C19.1599 8.13089 19.3769 7.32089 19.4919 6.67389C19.6059 6.03689 19.6089 5.62389 19.5279 5.27689C19.3818 4.65084 19.0532 4.0822 18.5839 3.64289C18.3239 3.39889 17.9659 3.19589 17.3569 2.97489C16.7379 2.75189 15.9289 2.53489 14.7889 2.22889C13.6489 1.92389 12.8389 1.70689 12.1919 1.59189ZM9.80189 8.55589C9.82741 8.46073 9.87143 8.37154 9.93144 8.29341C9.99144 8.21527 10.0662 8.14972 10.1516 8.1005C10.2369 8.05128 10.3311 8.01936 10.4288 8.00656C10.5265 7.99376 10.6257 8.00033 10.7209 8.02589L15.5509 9.31989C15.7377 9.37606 15.8953 9.50279 15.9902 9.67321C16.0851 9.84363 16.1099 10.0443 16.0592 10.2327C16.0086 10.4211 15.8866 10.5823 15.7191 10.6823C15.5516 10.7822 15.3517 10.8129 15.1619 10.7679L10.3319 9.47389C10.1399 9.42233 9.97631 9.29669 9.87693 9.12456C9.77755 8.95243 9.75056 8.7479 9.80189 8.55589ZM9.02489 11.4539C9.05041 11.3586 9.09446 11.2693 9.15453 11.1911C9.2146 11.1129 9.28951 11.0473 9.37496 10.9981C9.46042 10.9488 9.55474 10.917 9.65254 10.9042C9.75033 10.8915 9.84968 10.8982 9.94489 10.9239L12.8419 11.6999C13.034 11.7513 13.1979 11.877 13.2974 12.0493C13.3969 12.2215 13.4238 12.4262 13.3724 12.6184C13.3209 12.8105 13.1953 12.9744 13.023 13.0739C12.8508 13.1734 12.646 13.2003 12.4539 13.1489L9.55589 12.3719C9.36394 12.3203 9.2003 12.1947 9.10093 12.0226C9.00155 11.8504 8.97456 11.6459 9.02589 11.4539" fill="white"/>
</svg>
