<svg width="25" height="24" viewBox="0 0 25 24" fill="none" xmlns="http://www.w3.org/2000/svg">
<path d="M2.99301 6.88088L4.73401 3.00088C4.89419 2.57341 5.18115 2.20509 5.55646 1.94523C5.93177 1.68537 6.37752 1.54638 6.83401 1.54688H15.675C16.1315 1.54638 16.5773 1.68537 16.9526 1.94523C17.3279 2.20509 17.6148 2.57341 17.775 3.00088L19.517 6.88288M1.54901 13.2939V14.9859C1.54901 15.1819 1.58763 15.3761 1.66266 15.5572C1.73769 15.7384 1.84766 15.9029 1.9863 16.0416C2.12494 16.1802 2.28953 16.2902 2.47066 16.3652C2.6518 16.4403 2.84595 16.4789 3.04201 16.4789C3.23807 16.4789 3.43222 16.4403 3.61336 16.3652C3.7945 16.2902 3.95908 16.1802 4.09772 16.0416C4.23636 15.9029 4.34633 15.7384 4.42136 15.5572C4.49639 15.3761 4.53501 15.1819 4.53501 14.9859V13.4929" stroke="white" stroke-width="1.5" stroke-linecap="round" stroke-linejoin="round"/>
<path d="M21.307 8.26644C21.0444 7.81248 20.6671 7.43556 20.2128 7.17351C19.7586 6.91146 19.2434 6.77348 18.719 6.77344H3.78499C2.99322 6.7737 2.23398 7.08841 1.67421 7.64837C1.11445 8.20832 0.799988 8.96767 0.799988 9.75944V11.9994C0.799988 12.3954 0.957286 12.7752 1.23728 13.0551C1.51727 13.3351 1.89702 13.4924 2.29299 13.4924H8.26599" stroke="white" stroke-width="1.5" stroke-linecap="round" stroke-linejoin="round"/>
<path d="M17.227 22.4523C18.0178 22.4626 18.8028 22.3156 19.5364 22.0201C20.27 21.7245 20.9376 21.2862 21.5004 20.7306C22.0633 20.175 22.5102 19.5131 22.8152 18.7834C23.1202 18.0537 23.2773 17.2707 23.2773 16.4798C23.2773 15.6889 23.1202 14.9059 22.8152 14.1762C22.5102 13.4465 22.0633 12.7847 21.5004 12.2291C20.9376 11.6734 20.27 11.2351 19.5364 10.9396C18.8028 10.644 18.0178 10.4971 17.227 10.5073C15.6564 10.5277 14.157 11.1658 13.0535 12.2837C11.95 13.4016 11.3313 14.9091 11.3313 16.4798C11.3313 18.0506 11.95 19.5581 13.0535 20.676C14.157 21.7938 15.6564 22.432 17.227 22.4523Z" stroke="white" stroke-width="1.5" stroke-linecap="round" stroke-linejoin="round"/>
<path d="M19.89 14.7432L16.997 18.5992C16.9327 18.6847 16.8508 18.7554 16.7568 18.8065C16.6628 18.8577 16.5589 18.8881 16.4522 18.8957C16.3455 18.9032 16.2384 18.8878 16.1381 18.8505C16.0378 18.8131 15.9467 18.7547 15.871 18.6792L14.378 17.1862" stroke="white" stroke-width="1.5" stroke-linecap="round" stroke-linejoin="round"/>
<path d="M4.16201 10.5068C4.06295 10.5068 3.96795 10.4674 3.89791 10.3974C3.82786 10.3273 3.78851 10.2323 3.78851 10.1333C3.78851 10.0342 3.82786 9.93921 3.89791 9.86916C3.96795 9.79912 4.06295 9.75977 4.16201 9.75977M4.16201 10.5068C4.26107 10.5068 4.35607 10.4674 4.42612 10.3974C4.49616 10.3273 4.53551 10.2323 4.53551 10.1333C4.53551 10.0342 4.49616 9.93921 4.42612 9.86916C4.35607 9.79912 4.26107 9.75977 4.16201 9.75977" stroke="white" stroke-width="1.5"/>
</svg>
