<svg width="22" height="22" viewBox="0 0 22 22" fill="none" xmlns="http://www.w3.org/2000/svg">
<path d="M7.02784 12.3716H2.83865C2.28361 12.3748 1.75238 12.5975 1.36102 12.991C0.969665 13.3846 0.749992 13.9171 0.750001 14.4722V18.6614C0.749717 18.9357 0.803547 19.2074 0.908411 19.461C1.01327 19.7145 1.16711 19.9449 1.36112 20.1389C1.55512 20.3329 1.78549 20.4867 2.03902 20.5916C2.29256 20.6965 2.56428 20.7503 2.83865 20.75H7.02784C7.58296 20.7506 8.11566 20.5311 8.5092 20.1395C8.90274 19.748 9.12501 19.2165 9.1273 18.6614V14.4722C9.12758 14.1964 9.07347 13.9232 8.96806 13.6684C8.86266 13.4135 8.70802 13.182 8.51301 12.987C8.318 12.792 8.08645 12.6373 7.8316 12.5319C7.57676 12.4265 7.30362 12.3724 7.02784 12.3727M7.02784 0.750001H2.83865C2.56428 0.749717 2.29256 0.803547 2.03902 0.908411C1.78549 1.01327 1.55512 1.16711 1.36112 1.36112C1.16711 1.55512 1.01327 1.78549 0.908411 2.03902C0.803547 2.29256 0.749717 2.56428 0.750001 2.83865V7.02784C0.749424 7.58296 0.968948 8.11566 1.36046 8.5092C1.75197 8.90274 2.28354 9.12501 2.83865 9.1273H7.02784C7.30362 9.12758 7.57676 9.07347 7.8316 8.96806C8.08645 8.86266 8.318 8.70802 8.51301 8.51301C8.70802 8.318 8.86266 8.08645 8.96806 7.8316C9.07347 7.57676 9.12758 7.30362 9.1273 7.02784V2.83865C9.12501 2.28354 8.90274 1.75197 8.5092 1.36046C8.11566 0.968948 7.58296 0.749424 7.02784 0.750001ZM18.6614 0.750001H14.4722C13.917 0.749424 13.3843 0.968948 12.9908 1.36046C12.5973 1.75197 12.375 2.28354 12.3727 2.83865V7.02784C12.373 7.58456 12.5943 8.1184 12.9879 8.51206C13.3816 8.90573 13.9154 9.12701 14.4722 9.1273H18.6614C19.2165 9.12501 19.748 8.90274 20.1395 8.5092C20.5311 8.11566 20.7506 7.58296 20.75 7.02784V2.83865C20.7503 2.56428 20.6965 2.29256 20.5916 2.03902C20.4867 1.78549 20.3329 1.55512 20.1389 1.36112C19.9449 1.16711 19.7145 1.01327 19.461 0.908411C19.2074 0.803547 18.9357 0.749717 18.6614 0.750001ZM16.5608 12.3716C15.4498 12.3716 14.3842 12.813 13.5986 13.5986C12.813 14.3842 12.3716 15.4498 12.3716 16.5608C12.3716 17.6719 12.813 18.7374 13.5986 19.523C14.3842 20.3086 15.4498 20.75 16.5608 20.75C17.6719 20.75 18.7374 20.3086 19.523 19.523C20.3086 18.7374 20.75 17.6719 20.75 16.5608C20.75 15.4498 20.3086 14.3842 19.523 13.5986C18.7374 12.813 17.6719 12.3716 16.5608 12.3716Z" stroke="#878787" stroke-width="1.5" stroke-linecap="round" stroke-linejoin="round"/>
</svg>
