<svg width="20" height="18" viewBox="0 0 20 18" fill="none" xmlns="http://www.w3.org/2000/svg">
<path d="M14.0178 17.7778C13.72 17.7778 13.4604 17.667 13.2389 17.4456C13.0174 17.2241 12.9063 16.9644 12.9056 16.6667V11.7956C12.9056 11.4978 13.0167 11.2381 13.2389 11.0167C13.4611 10.7952 13.7204 10.6841 14.0167 10.6833H18.8889C19.1867 10.6833 19.4463 10.7944 19.6678 11.0167C19.8893 11.2389 20 11.4981 20 11.7944V16.6667C20 16.9644 19.8893 17.2241 19.6678 17.4456C19.4463 17.667 19.1867 17.7778 18.8889 17.7778H14.0178ZM14.0178 16.6667H18.8889V11.7956H14.0178V16.6667ZM0 14.7867V13.6756H9.14444V14.7867H0ZM14.0178 7.09333C13.72 7.09333 13.4604 6.98259 13.2389 6.76111C13.0174 6.53963 12.9063 6.28037 12.9056 5.98333V1.11111C12.9056 0.813333 13.0167 0.553703 13.2389 0.332222C13.4611 0.11074 13.7204 0 14.0167 0H18.8889C19.1867 0 19.4463 0.11074 19.6678 0.332222C19.8893 0.553703 20 0.813333 20 1.11111V5.98333C20 6.28037 19.8893 6.53963 19.6678 6.76111C19.4463 6.98259 19.1867 7.0937 18.8889 7.09445L14.0178 7.09333ZM14.0178 5.98222H18.8889V1.11111H14.0178V5.98222ZM0 4.10222V2.99111H9.14444V4.10222H0Z" fill="#878787"/>
</svg>
