<svg width="22" height="24" viewBox="0 0 22 24" fill="none" xmlns="http://www.w3.org/2000/svg">
<path d="M9.08333 10.7501H16.3056M5.19444 10.7501H5.75M5.19444 6.86118H5.75M5.19444 14.639H5.75M16.3056 14.639H15.1944M9.08333 14.639H12.4167M16.3056 6.86118H12.9722M9.08333 6.86118H10.1944M20.75 6.30563V5.60563C20.75 4.28007 20.75 3.61674 20.5744 3.08341C20.4146 2.58831 20.143 2.13665 19.7806 1.76343C19.4181 1.3902 18.9746 1.10543 18.4844 0.931184C17.9644 0.750073 17.3211 0.750072 16.0333 0.750072H5.46667C4.17889 0.750072 3.53556 0.750073 3.01556 0.931184C2.52548 1.10532 2.08206 1.38992 1.71963 1.76294C1.35721 2.13597 1.0855 2.5874 0.925556 3.08229C0.75 3.61785 0.75 4.28007 0.75 5.60563V15.1945M20.75 10.7501V21.1656C20.75 22.119 19.6556 22.6256 18.9633 21.9923C18.7691 21.8128 18.5144 21.7132 18.25 21.7132C17.9856 21.7132 17.7309 21.8128 17.5367 21.9923L17 22.4834C16.6598 22.798 16.2134 22.9728 15.75 22.9728C15.2866 22.9728 14.8402 22.798 14.5 22.4834C14.1598 22.1688 13.7134 21.994 13.25 21.994C12.7866 21.994 12.3402 22.1688 12 22.4834C11.6598 22.798 11.2134 22.9728 10.75 22.9728C10.2866 22.9728 9.84023 22.798 9.5 22.4834C9.15977 22.1688 8.71341 21.994 8.25 21.994C7.78659 21.994 7.34023 22.1688 7 22.4834C6.65977 22.798 6.21341 22.9728 5.75 22.9728C5.28659 22.9728 4.84023 22.798 4.5 22.4834L3.96333 21.9923C3.76913 21.8128 3.51442 21.7132 3.25 21.7132C2.98558 21.7132 2.73087 21.8128 2.53667 21.9923C1.84444 22.6256 0.75 22.119 0.75 21.1656V19.639" stroke="white" stroke-width="1.5" stroke-linecap="round"/>
</svg>
