<svg width="32" height="32" viewBox="0 0 32 32" fill="none" xmlns="http://www.w3.org/2000/svg">
<rect x="0.5" y="0.5" width="31" height="31" rx="4.5" fill="#0F110F"/>
<rect x="0.5" y="0.5" width="31" height="31" rx="4.5" stroke="#575757"/>
<path d="M7.66602 13.142C7.66602 12.1445 8.06768 11.5337 8.89935 11.0703L12.3243 9.16449C14.1185 8.16699 15.016 7.66699 15.9993 7.66699C16.9827 7.66699 17.8802 8.16699 19.6743 9.16449L23.0993 11.0703C23.9302 11.5337 24.3327 12.1445 24.3327 13.142C24.3327 13.412 24.3327 13.5478 24.3035 13.6587C24.1485 14.242 23.6193 14.3345 23.1085 14.3345H8.89018C8.37935 14.3345 7.85102 14.2428 7.69518 13.6587C7.66602 13.547 7.66602 13.412 7.66602 13.142Z" stroke="white" stroke-width="1.5"/>
<path d="M15.9961 11.834H16.0036" stroke="white" stroke-width="2" stroke-linecap="round" stroke-linejoin="round"/>
<path d="M9.33268 14.334V21.4173M12.666 14.334V21.4173M19.3327 14.334V21.4173M22.666 14.334V21.4173M21.8327 21.4173H10.166C9.50297 21.4173 8.86709 21.6807 8.39825 22.1496C7.92941 22.6184 7.66602 23.2543 7.66602 23.9173C7.66602 24.0278 7.70991 24.1338 7.78805 24.2119C7.86619 24.2901 7.97218 24.334 8.08268 24.334H23.916C24.0265 24.334 24.1325 24.2901 24.2106 24.2119C24.2888 24.1338 24.3327 24.0278 24.3327 23.9173C24.3327 23.2543 24.0693 22.6184 23.6004 22.1496C23.1316 21.6807 22.4957 21.4173 21.8327 21.4173Z" stroke="white" stroke-width="1.5"/>
</svg>
