<svg width="21" height="21" viewBox="0 0 21 21" fill="none" xmlns="http://www.w3.org/2000/svg">
<path d="M17 12.696V16.2035C17 18.024 15.5445 19.5 13.7485 19.5C11.9525 19.5 10.497 18.024 10.497 16.2035L10.503 5.0715C10.503 3.099 9.0475 1.5 7.2515 1.5C5.4555 1.5 4 3.099 4 5.0715V12.6965" stroke="white" stroke-width="2" stroke-linecap="round" stroke-linejoin="round"/>
<path d="M20 14L17 11L14 14M20 3.86352C20 6.09102 17 8.00002 17 8.00002C17 8.00002 14 6.09102 14 3.86352C14 3.10402 14.316 2.37602 14.8785 1.83852C15.452 1.29735 16.2115 0.997173 17 1.00002C17.7885 0.997173 18.548 1.29735 19.1215 1.83852C19.3975 2.09892 19.6177 2.41269 19.7687 2.7608C19.9197 3.1089 19.9984 3.48407 20 3.86352ZM7 15.8635C7 18.091 4 20 4 20C4 20 1 18.091 1 15.8635C1 15.104 1.316 14.376 1.8785 13.8385C2.452 13.2973 3.21148 12.9972 4 13C4.78852 12.9972 5.548 13.2973 6.1215 13.8385C6.39756 14.099 6.6178 14.4128 6.76882 14.761C6.91983 15.1092 6.99849 15.484 7 15.8635Z" stroke="white" stroke-width="2" stroke-linecap="round" stroke-linejoin="round"/>
<path d="M17 5C17.5523 5 18 4.55228 18 4C18 3.44772 17.5523 3 17 3C16.4477 3 16 3.44772 16 4C16 4.55228 16.4477 5 17 5Z" fill="white"/>
<path d="M4 17C4.55228 17 5 16.5523 5 16C5 15.4477 4.55228 15 4 15C3.44772 15 3 15.4477 3 16C3 16.5523 3.44772 17 4 17Z" fill="white"/>
</svg>
