<svg width="19" height="15" viewBox="0 0 19 15" fill="none" xmlns="http://www.w3.org/2000/svg">
<path d="M0.75 3.16286e-05C0.551088 3.16286e-05 0.360322 0.0790494 0.21967 0.219702C0.0790176 0.360354 0 0.551119 0 0.750032C0 0.948944 0.0790176 1.13971 0.21967 1.28036C0.360322 1.42101 0.551088 1.50003 0.75 1.50003H2.415L4.383 9.37503C4.55025 10.0425 5.148 10.5 5.83575 10.5H15.1882C15.8655 10.5 16.4408 10.05 16.6185 9.39753L18.5625 2.25003H16.992L15.1875 9.00003H5.835L3.86775 1.12503C3.78649 0.801953 3.59916 0.51549 3.33576 0.311517C3.07236 0.107544 2.74813 -0.0021397 2.415 3.16286e-05H0.75ZM14.25 10.5C13.0162 10.5 12 11.5163 12 12.75C12 13.9838 13.0162 15 14.25 15C15.4838 15 16.5 13.9838 16.5 12.75C16.5 11.5163 15.4838 10.5 14.25 10.5ZM7.5 10.5C6.26625 10.5 5.25 11.5163 5.25 12.75C5.25 13.9838 6.26625 15 7.5 15C8.73375 15 9.75 13.9838 9.75 12.75C9.75 11.5163 8.73375 10.5 7.5 10.5ZM9.75 3.16286e-05V3.75003H7.5L10.5 6.75003L13.5 3.75003H11.25V3.16286e-05H9.75ZM7.5 12C7.923 12 8.25 12.327 8.25 12.75C8.25 13.173 7.923 13.5 7.5 13.5C7.077 13.5 6.75 13.173 6.75 12.75C6.75 12.327 7.077 12 7.5 12ZM14.25 12C14.673 12 15 12.327 15 12.75C15 13.173 14.673 13.5 14.25 13.5C13.827 13.5 13.5 13.173 13.5 12.75C13.5 12.327 13.827 12 14.25 12Z" fill="white"/>
</svg>
