<svg width="20" height="20" viewBox="0 0 20 20" fill="none" xmlns="http://www.w3.org/2000/svg">
<path d="M14.018 4.16699H5.9838C5.53214 4.16699 5.16714 4.16699 4.87297 4.19116C4.5688 4.21616 4.30214 4.26866 4.05547 4.39366C3.66326 4.59343 3.34441 4.91229 3.14464 5.30449C3.08714 5.41783 3.0613 5.56783 3.04464 5.67949C3.02464 5.81116 3.0088 5.97116 2.99547 6.14699C2.96964 6.50033 2.95214 6.94116 2.94047 7.39533C2.91797 8.30366 2.91797 9.28283 2.91797 9.74949C2.91797 9.86 2.96187 9.96681 3.04001 10.045C3.11815 10.1231 3.22413 10.167 3.33464 10.167C3.44514 10.167 3.55112 10.1231 3.62926 10.045C3.7074 9.96681 3.7513 9.86083 3.7513 9.75033C3.7513 9.44199 3.7513 8.91449 3.75797 8.33366H16.2505V12.7503C16.2505 13.2237 16.2505 13.5545 16.2288 13.8112C16.2088 14.0628 16.1705 14.2078 16.1146 14.3178C15.9948 14.5532 15.8034 14.7446 15.568 14.8645C15.458 14.9203 15.313 14.9587 15.0613 14.9787C14.8046 15.0003 14.4738 15.0003 14.0005 15.0003H10.0005C9.88996 15.0003 9.78398 15.0442 9.70584 15.1224C9.6277 15.2005 9.5838 15.3065 9.5838 15.417C9.5838 15.5275 9.6277 15.6335 9.70584 15.7116C9.78398 15.7898 9.88996 15.8337 10.0005 15.8337H14.018C14.4696 15.8337 14.8346 15.8337 15.1288 15.8095C15.433 15.7845 15.6996 15.732 15.9463 15.6062C16.3381 15.4065 16.6566 15.0879 16.8563 14.6962C16.9821 14.4495 17.0346 14.1828 17.0596 13.8795C17.0838 13.5837 17.0838 13.2195 17.0838 12.7678V7.23366C17.0838 6.78199 17.0838 6.41699 17.0596 6.12283C17.0346 5.81866 16.9821 5.55199 16.8563 5.30533C16.6567 4.91325 16.3382 4.5944 15.9463 4.39449C15.6996 4.26949 15.433 4.21699 15.1296 4.19199C14.8338 4.16699 14.4696 4.16699 14.018 4.16699ZM16.2471 6.66699H3.7988C3.80658 6.50033 3.81575 6.34755 3.8263 6.20866C3.83797 6.04088 3.85186 5.90533 3.86797 5.80199C3.87797 5.73449 3.8863 5.69783 3.88964 5.68283L3.8913 5.67449C4.01128 5.44294 4.20068 5.2547 4.43297 5.13616C4.54297 5.08033 4.68797 5.04199 4.93964 5.02199C5.19714 5.00033 5.52714 5.00033 6.00047 5.00033H14.0005C14.4738 5.00033 14.8046 5.00033 15.0613 5.02199C15.313 5.04199 15.458 5.08033 15.568 5.13616C15.8034 5.25604 15.9948 5.44741 16.1146 5.68283C16.1705 5.79283 16.2088 5.93783 16.2288 6.18949C16.2405 6.32533 16.2446 6.48116 16.2471 6.66699Z" fill="white"/>
<path d="M7.76105 13.2305L7.16105 13.8139C7.53771 14.5247 7.41938 15.418 6.80355 16.0147L5.84688 16.943C5.4732 17.3001 4.97624 17.4994 4.45938 17.4994C3.94252 17.4994 3.44556 17.3001 3.07188 16.943C2.89113 16.7703 2.74726 16.5627 2.64897 16.3328C2.55068 16.103 2.5 15.8555 2.5 15.6055C2.5 15.3555 2.55068 15.1081 2.64897 14.8782C2.74726 14.6483 2.89113 14.4407 3.07188 14.268L3.67188 13.6864C3.48373 13.3305 3.41676 12.9231 3.48112 12.5257C3.54549 12.1284 3.73768 11.7629 4.02855 11.4847L4.98521 10.5564C5.35889 10.1993 5.85585 10 6.37271 10C6.88957 10 7.38653 10.1993 7.76021 10.5564C7.94097 10.7291 8.08483 10.9367 8.18312 11.1665C8.28141 11.3964 8.33209 11.6438 8.33209 11.8939C8.33209 12.1439 8.28141 12.3913 8.18312 12.6212C8.08483 12.8511 7.94097 13.0586 7.76021 13.2314M7.21771 12.723C7.32943 12.6159 7.41833 12.4873 7.47906 12.345C7.53979 12.2026 7.5711 12.0495 7.5711 11.8947C7.5711 11.7399 7.53979 11.5868 7.47906 11.4444C7.41833 11.3021 7.32943 11.1735 7.21771 11.0664C6.99036 10.8481 6.68743 10.7263 6.3723 10.7263C6.05716 10.7263 5.75423 10.8481 5.52688 11.0664L4.56938 11.9947C4.41793 12.1403 4.30928 12.3247 4.25522 12.5277C4.20115 12.7307 4.20375 12.9447 4.26271 13.1464C4.62201 12.8965 5.05282 12.7704 5.49012 12.7869C5.92742 12.8035 6.34747 12.9618 6.68688 13.238L7.21771 12.723ZM6.14438 13.7497C5.93355 13.5938 5.67826 13.5097 5.41605 13.5097C5.15384 13.5097 4.89854 13.5938 4.68771 13.7497C4.89854 13.9056 5.15384 13.9897 5.41605 13.9897C5.67826 13.9897 5.93355 13.9056 6.14438 13.7497ZM3.61355 14.7772C3.50183 14.8843 3.41293 15.0129 3.3522 15.1552C3.29147 15.2976 3.26016 15.4508 3.26016 15.6055C3.26016 15.7603 3.29147 15.9134 3.3522 16.0558C3.41293 16.1982 3.50183 16.3267 3.61355 16.4339C3.84089 16.6521 4.14382 16.7739 4.45896 16.7739C4.7741 16.7739 5.07703 16.6521 5.30438 16.4339L6.26188 15.5055C6.58271 15.1947 6.68521 14.7505 6.56855 14.3539C6.20924 14.6037 5.77843 14.7298 5.34114 14.7133C4.90384 14.6967 4.48379 14.5384 4.14438 14.2622L3.61355 14.7772ZM11.666 11.6664C11.445 11.6664 11.2331 11.7542 11.0768 11.9104C10.9205 12.0667 10.8327 12.2787 10.8327 12.4997C10.8327 12.7207 10.9205 12.9327 11.0768 13.0889C11.2331 13.2452 11.445 13.333 11.666 13.333H14.166C14.3871 13.333 14.599 13.2452 14.7553 13.0889C14.9116 12.9327 14.9994 12.7207 14.9994 12.4997C14.9994 12.2787 14.9116 12.0667 14.7553 11.9104C14.599 11.7542 14.3871 11.6664 14.166 11.6664H11.666Z" fill="white"/>
</svg>
