<svg width="24" height="24" viewBox="0 0 24 24" fill="none" xmlns="http://www.w3.org/2000/svg">
<path d="M8.79983 16.8H4.79962C4.6633 16.7999 4.52925 16.765 4.41021 16.6986C4.29117 16.6322 4.19107 16.5365 4.11942 16.4205C4.04777 16.3045 4.00694 16.1722 4.00081 16.036C3.99468 15.8998 4.02344 15.7643 4.08438 15.6424L5.59966 12.6104V10.4C5.59966 8.70261 6.27398 7.07475 7.47428 5.87452C8.67457 4.67428 10.3025 4 12 4C13.6975 4 15.3254 4.67428 16.5257 5.87452C17.726 7.07475 18.4003 8.70261 18.4003 10.4V12.6112L19.9156 15.6424C19.9766 15.7643 20.0053 15.8998 19.9992 16.036C19.9931 16.1722 19.9522 16.3045 19.8806 16.4205C19.8089 16.5365 19.7088 16.6322 19.5898 16.6986C19.4707 16.765 19.3367 16.7999 19.2004 16.8H15.2002M8.79983 16.8H15.2002M8.79983 16.8C8.79983 17.6487 9.13699 18.4626 9.73714 19.0627C10.3373 19.6629 11.1513 20 12 20C12.8487 20 13.6627 19.6629 14.2629 19.0627C14.863 18.4626 15.2002 17.6487 15.2002 16.8" stroke="#878787" stroke-width="1.5" stroke-linecap="round" stroke-linejoin="round"/>
</svg>
