<svg width="24" height="24" viewBox="0 0 24 24" fill="none" xmlns="http://www.w3.org/2000/svg">
<path d="M3.5 5C3.5 4.33696 3.76339 3.70107 4.23223 3.23223C4.70107 2.76339 5.33696 2.5 6 2.5H16C16.663 2.5 17.2989 2.76339 17.7678 3.23223C18.2366 3.70107 18.5 4.33696 18.5 5V10.5C18.5 10.6326 18.4473 10.7598 18.3536 10.8536C18.2598 10.9473 18.1326 11 18 11C17.8674 11 17.7402 10.9473 17.6464 10.8536C17.5527 10.7598 17.5 10.6326 17.5 10.5V5C17.5 4.60218 17.342 4.22064 17.0607 3.93934C16.7794 3.65804 16.3978 3.5 16 3.5H6C5.60218 3.5 5.22064 3.65804 4.93934 3.93934C4.65804 4.22064 4.5 4.60218 4.5 5V19C4.5 19.3978 4.65804 19.7794 4.93934 20.0607C5.22064 20.342 5.60218 20.5 6 20.5H13C13.1326 20.5 13.2598 20.5527 13.3536 20.6464C13.4473 20.7402 13.5 20.8674 13.5 21C13.5 21.1326 13.4473 21.2598 13.3536 21.3536C13.2598 21.4473 13.1326 21.5 13 21.5H6C5.33696 21.5 4.70107 21.2366 4.23223 20.7678C3.76339 20.2989 3.5 19.663 3.5 19V5Z" fill="white"/>
<path d="M18 13.5C18.1326 13.5 18.2598 13.5527 18.3536 13.6464C18.4473 13.7402 18.5 13.8674 18.5 14V14.667H18.669C19.619 14.667 20.5 15.351 20.5 16.333C20.5 16.4656 20.4473 16.5928 20.3536 16.6866C20.2598 16.7803 20.1326 16.833 20 16.833C19.8674 16.833 19.7402 16.7803 19.6464 16.6866C19.5527 16.5928 19.5 16.4656 19.5 16.333C19.5 16.023 19.194 15.667 18.669 15.667H17.163C16.733 15.667 16.5 15.96 16.5 16.183C16.5 16.396 16.552 16.468 16.583 16.501C16.629 16.55 16.722 16.607 16.933 16.67L19.35 17.371C19.613 17.449 19.915 17.569 20.146 17.815C20.393 18.078 20.5 18.419 20.5 18.817C20.5 19.715 19.689 20.333 18.837 20.333H18.5V21C18.5 21.1326 18.4473 21.2598 18.3536 21.3536C18.2598 21.4473 18.1326 21.5 18 21.5C17.8674 21.5 17.7402 21.4473 17.6464 21.3536C17.5527 21.2598 17.5 21.1326 17.5 21V20.333H17.331C16.381 20.333 15.5 19.649 15.5 18.667C15.5 18.5344 15.5527 18.4072 15.6464 18.3134C15.7402 18.2197 15.8674 18.167 16 18.167C16.1326 18.167 16.2598 18.2197 16.3536 18.3134C16.4473 18.4072 16.5 18.5344 16.5 18.667C16.5 18.977 16.806 19.333 17.331 19.333H18.837C19.267 19.333 19.5 19.04 19.5 18.817C19.5 18.604 19.448 18.532 19.417 18.499C19.371 18.45 19.278 18.393 19.067 18.33L16.65 17.629C16.387 17.551 16.085 17.431 15.854 17.185C15.607 16.922 15.5 16.581 15.5 16.183C15.5 15.285 16.311 14.667 17.163 14.667H17.5V14C17.5 13.8674 17.5527 13.7402 17.6464 13.6464C17.7402 13.5527 17.8674 13.5 18 13.5ZM6.5 11C6.5 10.8674 6.55268 10.7402 6.64644 10.6464C6.74021 10.5527 6.86739 10.5 7 10.5H7.5C7.63261 10.5 7.75978 10.5527 7.85355 10.6464C7.94732 10.7402 8 10.8674 8 11C8 11.1326 7.94732 11.2598 7.85355 11.3536C7.75978 11.4473 7.63261 11.5 7.5 11.5H7C6.86739 11.5 6.74021 11.4473 6.64644 11.3536C6.55268 11.2598 6.5 11.1326 6.5 11ZM9.5 11C9.5 10.8674 9.55268 10.7402 9.64644 10.6464C9.74021 10.5527 9.86739 10.5 10 10.5H15C15.1326 10.5 15.2598 10.5527 15.3536 10.6464C15.4473 10.7402 15.5 10.8674 15.5 11C15.5 11.1326 15.4473 11.2598 15.3536 11.3536C15.2598 11.4473 15.1326 11.5 15 11.5H10C9.86739 11.5 9.74021 11.4473 9.64644 11.3536C9.55268 11.2598 9.5 11.1326 9.5 11ZM6.5 14C6.5 13.8674 6.55268 13.7402 6.64644 13.6464C6.74021 13.5527 6.86739 13.5 7 13.5H7.5C7.63261 13.5 7.75978 13.5527 7.85355 13.6464C7.94732 13.7402 8 13.8674 8 14C8 14.1326 7.94732 14.2598 7.85355 14.3536C7.75978 14.4473 7.63261 14.5 7.5 14.5H7C6.86739 14.5 6.74021 14.4473 6.64644 14.3536C6.55268 14.2598 6.5 14.1326 6.5 14ZM9.5 14C9.5 13.8674 9.55268 13.7402 9.64644 13.6464C9.74021 13.5527 9.86739 13.5 10 13.5H13.5C13.6326 13.5 13.7598 13.5527 13.8536 13.6464C13.9473 13.7402 14 13.8674 14 14C14 14.1326 13.9473 14.2598 13.8536 14.3536C13.7598 14.4473 13.6326 14.5 13.5 14.5H10C9.86739 14.5 9.74021 14.4473 9.64644 14.3536C9.55268 14.2598 9.5 14.1326 9.5 14ZM6.5 17C6.5 16.8674 6.55268 16.7402 6.64644 16.6464C6.74021 16.5527 6.86739 16.5 7 16.5H7.5C7.63261 16.5 7.75978 16.5527 7.85355 16.6464C7.94732 16.7402 8 16.8674 8 17C8 17.1326 7.94732 17.2598 7.85355 17.3536C7.75978 17.4473 7.63261 17.5 7.5 17.5H7C6.86739 17.5 6.74021 17.4473 6.64644 17.3536C6.55268 17.2598 6.5 17.1326 6.5 17ZM9.5 17C9.5 16.8674 9.55268 16.7402 9.64644 16.6464C9.74021 16.5527 9.86739 16.5 10 16.5H12C12.1326 16.5 12.2598 16.5527 12.3536 16.6464C12.4473 16.7402 12.5 16.8674 12.5 17C12.5 17.1326 12.4473 17.2598 12.3536 17.3536C12.2598 17.4473 12.1326 17.5 12 17.5H10C9.86739 17.5 9.74021 17.4473 9.64644 17.3536C9.55268 17.2598 9.5 17.1326 9.5 17ZM6.784 4.5H15.216C15.342 4.5 15.465 4.5 15.569 4.508C15.683 4.518 15.819 4.54 15.954 4.609C16.1422 4.70487 16.2951 4.85784 16.391 5.046C16.461 5.182 16.482 5.316 16.491 5.431C16.5 5.535 16.5 5.658 16.5 5.784V7.216C16.5 7.342 16.5 7.465 16.491 7.569C16.4838 7.70273 16.4498 7.83366 16.391 7.954C16.2951 8.14215 16.1422 8.29513 15.954 8.391C15.8337 8.44978 15.7027 8.48378 15.569 8.491C15.4515 8.49815 15.3337 8.50115 15.216 8.5H6.784C6.658 8.5 6.535 8.5 6.431 8.492C6.29719 8.48447 6.16627 8.45012 6.046 8.391C5.85784 8.29513 5.70487 8.14215 5.609 7.954C5.55022 7.83366 5.51621 7.70273 5.509 7.569C5.50184 7.45147 5.49884 7.33373 5.5 7.216V5.784C5.5 5.658 5.5 5.535 5.508 5.431C5.518 5.317 5.54 5.181 5.609 5.046C5.70487 4.85784 5.85784 4.70487 6.046 4.609C6.16634 4.55022 6.29726 4.51621 6.431 4.509C6.54852 4.50184 6.66626 4.49884 6.784 4.5ZM6.506 5.506V5.512C6.5 5.571 6.5 5.652 6.5 5.8V7.2C6.49839 7.29804 6.50039 7.3961 6.506 7.494H6.512C6.571 7.5 6.652 7.5 6.8 7.5H15.2C15.348 7.5 15.43 7.5 15.488 7.495H15.494V7.488C15.4995 7.3921 15.5015 7.29604 15.5 7.2V5.8C15.5016 5.70196 15.4996 5.60389 15.494 5.506H15.488C15.3921 5.50054 15.296 5.49854 15.2 5.5H6.8C6.70196 5.49839 6.60389 5.50039 6.506 5.506Z" fill="white"/>
</svg>
